<?xml version="1.0" encoding="UTF-8"?>
<svg width="15px" height="15px" viewBox="0 0 15 15" version="1.1" xmlns="http://www.w3.org/2000/svg" xmlns:xlink="http://www.w3.org/1999/xlink">
    <title>arrow</title>
    <g id="Page-1" stroke="none" stroke-width="1" fill="none" fill-rule="evenodd">
        <path d="M7.46275094,0.750547152 L7.39515354,0.750547152 L7.25521188,0.764033679 L7.11354313,0.796922343 L7.02732229,0.827398498 L6.92254912,0.875966321 L6.81774251,0.939628819 L6.74438214,0.994223682 L6.6672233,1.0642233 L1.05501217,6.64650635 C0.645010813,7.07030657 0.649279122,7.74236915 1.06400248,8.15936487 L1.15789997,8.24348086 C1.58057911,8.58007351 2.19777723,8.55380661 2.59018764,8.16353458 L6.349,4.424 L6.34982032,13.6855828 C6.36010959,14.2779268 6.83999285,14.75 7.4288718,14.75 L7.54646034,14.7436675 C8.08716104,14.6850764 8.5080517,14.2271004 8.5080517,13.6708201 L8.507,4.418 L12.2998233,8.17779656 C12.7264983,8.58480545 13.3985142,8.57580789 13.8125811,8.15816036 C14.2322089,7.73490397 14.2292672,7.05161138 13.8060108,6.63198365 L8.11196641,0.993627943 L8.02138027,0.92711069 L7.94621708,0.881913657 L7.82853185,0.826494598 L7.70556406,0.785898415 L7.60857722,0.764936705 L7.5253589,0.753613662 L7.46275094,0.750547152 Z" id="arrow" fill="#6B7276" fill-rule="nonzero"></path>
    </g>
</svg>