<?xml version="1.0" encoding="UTF-8"?>
<svg width="82px" height="78px" viewBox="0 0 82 78" version="1.1" xmlns="http://www.w3.org/2000/svg" xmlns:xlink="http://www.w3.org/1999/xlink">
    <title>Group</title>
    <g id="Page-1" stroke="none" stroke-width="1" fill="none" fill-rule="evenodd">
        <g id="Group" fill="#1D70B8">
            <path d="M79.7124875,31.0711913 L2.71256796,31.0711913 C2.18354865,31.0698225 1.67563401,31.2797365 1.30056071,31.6548098 C0.925487423,32.0298831 0.713979918,32.5393912 0.71256796,33.071247 L0.71256796,75.164897 C0.635257354,75.9262069 0.99566402,76.6653834 1.64158654,77.0702687 C2.28750905,77.4751541 3.10632687,77.4751541 3.75224938,77.0702687 C4.3981719,76.6653834 4.75857857,75.9262069 4.68126796,75.164897 L4.68126796,35.071247 L77.7124875,35.071247 L77.7124875,75.289897 C77.6352764,76.0511572 77.9957119,76.7902389 78.6416007,77.1950661 C79.2874895,77.5998932 80.1062354,77.5998932 80.7521242,77.1950661 C81.3980131,76.7902389 81.7584486,76.0511572 81.6812375,75.289897 L81.6812375,33.071247 C81.6841453,33.0087811 81.6841453,32.9462128 81.6812375,32.883747 C81.5830851,31.8620643 80.7334148,31.0798281 79.7124875,31.0711913 Z" id="Path" transform="translate(41.196890, 54.284939) rotate(180.000000) translate(-41.196890, -54.284939) "></path>
            <path d="M63.7716527,36.3852695 C63.0306663,36.1292909 62.2092434,36.3331539 61.671867,36.9064 L43.203077,55.5002 L43.203077,2.63185275 C43.2084071,1.9138024 42.8283888,1.24800402 42.2074121,0.887431355 C41.5864354,0.526858693 40.8198186,0.526858693 40.1988419,0.887431355 C39.5778652,1.24800402 39.1978469,1.9138024 39.203177,2.63185275 L39.203177,55.5002 L20.703177,36.9064 C20.2003883,36.3888323 19.4592884,36.1836538 18.7638321,36.3694793 C18.0683758,36.5553049 17.5263889,37.1033235 17.3455354,37.8035601 C17.1646819,38.5037967 17.3730019,39.2476843 17.890677,39.7502 L39.765577,61.7814 C40.1405413,62.164576 40.6528181,62.380371 41.187477,62.380371 C41.7221359,62.380371 42.2344127,62.164576 42.609377,61.7814 L64.515567,39.7502 C64.8979339,39.370953 65.1123174,38.8526978 65.109347,38.3127 C65.1133075,38.239821 65.1133075,38.166779 65.109347,38.0939 C65.0359367,37.3096536 64.5126391,36.6412481 63.7716527,36.3852695 Z" id="Path"></path>
        </g>
    </g>
</svg>