<?xml version="1.0" encoding="UTF-8"?>
<svg width="18px" height="16px" viewBox="0 0 18 16" version="1.1" xmlns="http://www.w3.org/2000/svg" xmlns:xlink="http://www.w3.org/1999/xlink">
    <title>Shape</title>
    <g id="sharing" stroke="none" stroke-width="1" fill="none" fill-rule="evenodd">
        <g id="share---download" transform="translate(-397.000000, -890.000000)" fill="#1E70B8" fill-rule="nonzero">
            <path d="M407.010052,893.233816 L407.010052,901.191882 C407.010052,901.649845 406.64144,902.021097 406.179593,902.021097 C405.720943,902.021097 405.349133,901.649475 405.349133,901.191882 L405.349133,893.231126 L402.730103,895.613936 C402.408779,895.93526 401.887647,895.935096 401.561071,895.608521 C401.236757,895.284206 401.238671,894.756474 401.555656,894.439489 L405.596439,890.634926 C405.756213,890.475152 405.965388,890.394864 406.175482,890.394667 L406.181821,890.397147 C406.392727,890.397597 406.602443,890.477314 406.760055,890.634926 L410.806775,894.439489 C411.128099,894.760813 411.127935,895.281945 410.801359,895.608521 C410.477045,895.932835 409.949313,895.930921 409.632328,895.613936 L407.010052,893.233816 Z M399.535919,904.233749 L412.823267,904.233749 L412.823267,898.416712 C412.823267,897.960173 413.191878,897.590075 413.653726,897.590075 C414.112376,897.590075 414.484185,897.963039 414.484185,898.416712 L414.484185,905.06803 C414.484185,905.296115 414.392182,905.502624 414.242513,905.652187 C414.090603,905.802231 413.883783,905.894667 413.654851,905.894667 L398.704335,905.894667 C398.475952,905.894667 398.26913,905.803022 398.11915,905.65387 C397.9678,905.501188 397.875,905.294681 397.875,905.06803 L397.875,898.416712 C397.875,897.960173 398.243612,897.590075 398.705459,897.590075 C399.164109,897.590075 399.535919,897.963039 399.535919,898.416712 L399.535919,904.233749 Z" id="Shape"></path>
        </g>
    </g>
</svg>