<?xml version="1.0" encoding="UTF-8"?>
<svg width="15px" height="15px" viewBox="0 0 15 15" version="1.1" xmlns="http://www.w3.org/2000/svg" xmlns:xlink="http://www.w3.org/1999/xlink">
    <title>icon-arrow-green</title>
    <g id="Page-1" stroke="none" stroke-width="1" fill="none" fill-rule="evenodd">
        <path d="M7.49792156,0.502860615 L7.4288718,0.5 C7.47568732,0.5 7.52159666,0.503879776 7.56629584,0.511335335 C7.57841257,0.513414535 7.59107658,0.515825433 7.60368993,0.518533093 C7.61564717,0.521037359 7.62690214,0.523712268 7.63806566,0.526613942 C7.64662732,0.528903778 7.65575126,0.53143306 7.6648381,0.534121133 C7.6697044,0.535502794 7.67403869,0.536829355 7.67835773,0.538190314 C7.68791183,0.541239967 7.69788623,0.544580537 7.70780696,0.548116019 C7.71737844,0.551506204 7.72666801,0.555018216 7.73587628,0.55869052 C7.74824454,0.563625956 7.76032617,0.568772821 7.7723046,0.57421936 C7.77445739,0.575224699 7.77645976,0.576147265 7.77845781,0.57707756 C7.79083511,0.582792666 7.80342151,0.589029456 7.81587611,0.595605695 C7.81968163,0.597677677 7.82345523,0.599710593 7.82721112,0.601771752 C7.83892098,0.608110127 7.8509575,0.615097583 7.86284909,0.622412765 C7.88208082,0.634353066 7.90033944,0.646637867 7.91806379,0.659609423 C7.92954481,0.667925519 7.94134057,0.677045945 7.95293908,0.68652768 C7.96064429,0.692879885 7.96778624,0.698923552 7.97482309,0.705084317 L7.98552881,0.714608588 C7.99071886,0.719316728 7.99586383,0.724102399 8.00096222,0.728965607 L8.01266099,0.740342491 L13.6299968,6.30951974 C13.9552027,6.6319376 13.9574629,7.15694041 13.635045,7.48214633 C13.3164655,7.80348075 12.8000957,7.80951284 12.4741172,7.49857144 L12.4624184,7.48719456 L8.258,3.319 L8.2580517,13.1708201 C8.2580517,13.6287635 7.88681522,14 7.4288718,14 C6.97585251,14 6.60768551,13.6367042 6.59982032,13.185562 L6.599,3.323 L2.41389458,7.48627557 C2.0891962,7.80920456 1.56419048,7.80777018 1.24126149,7.4830718 C0.922176898,7.16223888 0.919778699,6.64583946 1.23300634,6.32205714 L1.24446526,6.31043872 L6.84415715,0.741261474 L6.85656558,0.729173831 C6.87193502,0.714509623 6.88786707,0.700429953 6.90432605,0.686970495 L6.8400344,0.745390715 C6.87276121,0.712380906 6.90757527,0.682698449 6.94405578,0.656345155 C6.957282,0.646869894 6.97116868,0.63745833 6.98534697,0.628465232 C6.99735705,0.620769995 7.00927943,0.61363317 7.02133573,0.60682217 L7.03907015,0.597151423 C7.04423457,0.594395655 7.04943156,0.59169294 7.05466042,0.589044006 C7.07851076,0.576942584 7.10247742,0.56625203 7.12680129,0.556753964 C7.12711887,0.55661622 7.12815062,0.55621373 7.12918337,0.555813249 C7.14293446,0.550560055 7.15415011,0.546541956 7.16543097,0.54277286 L7.18642274,0.536063648 C7.19844892,0.532398605 7.2105418,0.529012973 7.2226912,0.525906725 C7.22887743,0.524253406 7.23513854,0.522728714 7.24142702,0.521275551 C7.25026945,0.519309485 7.25925041,0.517389934 7.26825519,0.515620649 C7.29234845,0.51081545 7.31682159,0.507129134 7.34161997,0.504535842 C7.3608057,0.502554864 7.38022793,0.501193295 7.3996701,0.500511898 C7.4092662,0.500170802 7.41904905,0.5 7.4288718,0.5 C7.43821071,0.50002242 7.44528396,0.500131694 7.4523551,0.500330911 L7.47489078,0.501268832 C7.48257319,0.501693048 7.49025092,0.502223639 7.49792156,0.502860615 Z" id="icon-arrow-green" stroke="#00703C" stroke-width="0.5" fill="#00703C" fill-rule="nonzero"></path>
    </g>
</svg>