<?xml version="1.0" encoding="UTF-8"?>
<svg width="18px" height="16px" viewBox="0 0 18 16" version="1.1" xmlns="http://www.w3.org/2000/svg" xmlns:xlink="http://www.w3.org/1999/xlink">
    <title>Shape Copy</title>
    <g id="sharing" stroke="none" stroke-width="1" fill="none" fill-rule="evenodd">
        <g id="share---download" transform="translate(-251.000000, -890.000000)" fill="#1E70B8" fill-rule="nonzero">
            <path d="M258.979856,899.181948 L258.979856,891.223883 C258.979856,890.76592 259.348468,890.394667 259.810316,890.394667 C260.268966,890.394667 260.640775,890.766289 260.640775,891.223883 L260.640775,899.184639 L263.259806,896.801829 C263.581129,896.480505 264.102262,896.480668 264.428837,896.807244 C264.753152,897.131558 264.751237,897.65929 264.434253,897.976275 L260.393469,901.780838 C260.233695,901.940612 260.02452,902.0209 259.814426,902.021097 L259.808088,902.018618 C259.597181,902.018168 259.387465,901.938451 259.229853,901.780838 L255.183133,897.976275 C254.86181,897.654952 254.861973,897.133819 255.188549,896.807244 C255.512863,896.482929 256.040595,896.484844 256.35758,896.801829 L258.979856,899.181948 Z M253.160919,904.233749 L266.448267,904.233749 L266.448267,898.416712 C266.448267,897.960173 266.816878,897.590075 267.278726,897.590075 C267.737376,897.590075 268.109185,897.963039 268.109185,898.416712 L268.109185,905.06803 C268.109185,905.296115 268.017182,905.502624 267.867513,905.652187 C267.715603,905.802231 267.508783,905.894667 267.279851,905.894667 L252.329335,905.894667 C252.100952,905.894667 251.89413,905.803022 251.74415,905.65387 C251.5928,905.501188 251.5,905.294681 251.5,905.06803 L251.5,898.416712 C251.5,897.960173 251.868612,897.590075 252.330459,897.590075 C252.789109,897.590075 253.160919,897.963039 253.160919,898.416712 L253.160919,904.233749 Z" id="Shape-Copy"></path>
        </g>
    </g>
</svg>
