<?xml version="1.0" encoding="UTF-8"?>
<svg width="51px" height="49px" viewBox="0 0 51 49" version="1.1" xmlns="http://www.w3.org/2000/svg" xmlns:xlink="http://www.w3.org/1999/xlink">
    <title>icon-magnify</title>
    <g id="new-summary-design" stroke="none" stroke-width="1" fill="none" fill-rule="evenodd">
        <g id="04-copy-2" transform="translate(-1011.000000, -2311.000000)" fill="#FFFFFF">
            <g id="Group-3" transform="translate(535.000000, 1795.000000)">
                <g id="Group" transform="translate(51.000000, 428.000000)">
                    <path d="M446.157392,88.440262 C457.479229,88.440262 466.657392,97.6184247 466.657392,108.940262 C466.657392,112.959654 465.500633,116.70887 463.501865,119.873164 L475.906438,131.440262 L471.13245,136.559738 L458.811191,125.069967 C455.326449,127.807569 450.932588,129.440262 446.157392,129.440262 C434.835554,129.440262 425.657392,120.262099 425.657392,108.940262 C425.657392,97.6184247 434.835554,88.440262 446.157392,88.440262 Z M446.157392,95.440262 C438.701547,95.440262 432.657392,101.484418 432.657392,108.940262 C432.657392,116.396106 438.701547,122.440262 446.157392,122.440262 C453.613236,122.440262 459.657392,116.396106 459.657392,108.940262 C459.657392,101.484418 453.613236,95.440262 446.157392,95.440262 Z" id="icon-magnify"></path>
                </g>
            </g>
        </g>
    </g>
</svg>