<?xml version="1.0" encoding="UTF-8"?>
<svg width="15px" height="15px" viewBox="0 0 15 15" version="1.1" xmlns="http://www.w3.org/2000/svg" xmlns:xlink="http://www.w3.org/1999/xlink">
    <title>icon-arrow-red</title>
    <g id="Page-1" stroke="none" stroke-width="1" fill="none" fill-rule="evenodd">
        <path d="M7.70319407,0.502860615 L7.63414432,0.5 C7.68095983,0.5 7.72686917,0.503879776 7.77156835,0.511335335 C7.78368508,0.513414535 7.79634909,0.515825433 7.80896244,0.518533093 C7.82091969,0.521037359 7.83217465,0.523712268 7.84333817,0.526613942 C7.85189983,0.528903778 7.86102377,0.53143306 7.87011061,0.534121133 C7.87497691,0.535502794 7.8793112,0.536829355 7.88363024,0.538190314 C7.89318434,0.541239967 7.90315874,0.544580537 7.91307947,0.548116019 C7.92265095,0.551506204 7.93194052,0.555018216 7.94114879,0.55869052 C7.95351705,0.563625956 7.96559868,0.568772821 7.97757712,0.57421936 C7.9797299,0.575224699 7.98173227,0.576147265 7.98373032,0.57707756 C7.99610762,0.582792666 8.00869402,0.589029456 8.02114862,0.595605695 C8.02495414,0.597677677 8.02872774,0.599710593 8.03248363,0.601771752 C8.04419349,0.608110127 8.05623001,0.615097583 8.0681216,0.622412765 C8.08735333,0.634353066 8.10561195,0.646637867 8.1233363,0.659609423 C8.13481732,0.667925519 8.14661308,0.677045945 8.15821159,0.68652768 C8.1659168,0.692879885 8.17305875,0.698923552 8.1800956,0.705084317 L8.19080132,0.714608588 C8.19599137,0.719316728 8.20113634,0.724102399 8.20623473,0.728965607 L8.2179335,0.740342491 L13.8352693,6.30951974 C14.1604752,6.6319376 14.1627354,7.15694041 13.8403175,7.48214633 C13.521738,7.80348075 13.0053682,7.80951284 12.6793897,7.49857144 L12.667691,7.48719456 L8.46327251,3.319 L8.46332421,13.1708201 C8.46332421,13.6287635 8.09208773,14 7.63414432,14 C7.18112502,14 6.81295802,13.6367042 6.80509283,13.185562 L6.80427251,3.323 L2.61916709,7.48627557 C2.29446871,7.80920456 1.76946299,7.80777018 1.446534,7.4830718 C1.12744941,7.16223888 1.12505121,6.64583946 1.43827885,6.32205714 L1.44973777,6.31043872 L7.04942966,0.741261474 L7.06183809,0.729173831 C7.07720753,0.714509623 7.09313958,0.700429953 7.10959856,0.686970495 L7.04530691,0.745390715 C7.07803372,0.712380906 7.11284778,0.682698449 7.14932829,0.656345155 C7.16255451,0.646869894 7.17644119,0.63745833 7.19061948,0.628465232 C7.20262956,0.620769995 7.21455194,0.61363317 7.22660824,0.60682217 L7.24434266,0.597151423 C7.24950708,0.594395655 7.25470407,0.59169294 7.25993293,0.589044006 C7.28378327,0.576942584 7.30774993,0.56625203 7.3320738,0.556753964 C7.33239138,0.55661622 7.33342313,0.55621373 7.33445588,0.555813249 C7.34820697,0.550560055 7.35942262,0.546541956 7.37070348,0.54277286 L7.39169525,0.536063648 C7.40372143,0.532398605 7.41581431,0.529012973 7.42796371,0.525906725 C7.43414994,0.524253406 7.44041105,0.522728714 7.44669953,0.521275551 C7.45554196,0.519309485 7.46452292,0.517389934 7.4735277,0.515620649 C7.49762096,0.51081545 7.5220941,0.507129134 7.54689248,0.504535842 C7.56607821,0.502554864 7.58550044,0.501193295 7.60494262,0.500511898 C7.61453871,0.500170802 7.62432156,0.5 7.63414432,0.5 C7.64348322,0.50002242 7.65055647,0.500131694 7.65762761,0.500330911 L7.68016329,0.501268832 C7.6878457,0.501693048 7.69552343,0.502223639 7.70319407,0.502860615 Z" id="icon-arrow-red" stroke="#C72708" stroke-width="0.5" fill="#C72708" fill-rule="nonzero"></path>
    </g>
</svg>